<svg xmlns="http://www.w3.org/2000/svg" width="923.336" height="649.563" viewBox="0 0 923.336 649.563"><path d="M78.517,523.524l29.261,15.7,14.747,59.6,11.506,8.037,19.108,14.573,45.3-10.548L239.4,621.435l165.947,12,198.312,16.124,150.2-16.124,67.174-17.4,52.344-29.879,32.253-12.5L923.336,505.9l-17.708-102.73-25.866-22.861-6.387-33.24,43.643-23.819L898.452,184.946l24.884-33.695V103.37L851.7,35.343l-107.218,6.51H729.948L718.183,24.646l-27.58-7.7L436,6.227,322.8,0,266.677,16.943,239.4,35.343l-20.522,6.51L97.724,87.82,51.67,170.155v38.621l13.348,58.535L51.67,286.745,0,347.073,19.547,468.938Z" transform="translate(923.336 649.563) rotate(180)" fill="#fff"/></svg>