<svg xmlns="http://www.w3.org/2000/svg" width="355.433" height="379.354" viewBox="0 0 355.433 379.354"><path d="M30.224,305.746l11.264,9.168,5.677,34.809,4.429,4.694,7.356,8.511,17.437-6.16,15.77,6.16,63.88,7.01,76.339,9.417,57.817-9.417,25.858-10.163,20.149-17.45,12.416-7.3,6.817-39.568-6.817-60-9.957-13.351L336.2,202.7l16.8-13.91-7.147-80.774,9.579-19.678V60.37L327.858,20.641l-41.273,3.8h-5.6L276.46,14.394l-10.617-4.5L167.834,3.637,124.261,0,102.656,9.895l-10.5,10.746-7.9,3.8L37.618,51.288,19.89,99.373v22.555l5.138,34.185-5.138,11.35L0,202.7l7.524,71.171Z" transform="translate(355.433 379.354) rotate(180)" fill="#fff"/></svg>