<svg xmlns="http://www.w3.org/2000/svg" width="1150.889" height="1204.041" viewBox="0 0 1150.889 1204.041">
  <path id="Path_11" data-name="Path 11" d="M3973,535.495l152.143,14.248V535.495H4283.63l25.487-29.087,151.556,12.536h214.493l166.658-12.536,31.886,12.536h111.67l67.581-12.536h70.927V835.193l-29,39.344-66.614,34.234-13.455,61.182,13.455,31.56v28.144L5014.82,1072.8l-29.439,44.233-65.294,19.371v203.827h51.731v-22.878l22.989,12.386,33.468,10.492h42.209l32.174-10.492V1691.26h-47.841l-26.542,19.188h-42.894l-81.024-19.188h-106.42l-95.989,12.543-185.78-12.543H4319.205l-134.2,12.543-12.188-12.543V1703.8H4120.96l-40.645-27.886-11.9,6.351-24.425,8.992h-41.3l-12.445-15.343V1340.235h53.743l76.966-10.492,51.861-12.386v-142.1l-24.437-38.853-79.964-19.371V908.771l-24.425-54.016-41.3-19.562V794.818l-12.445-79.937V592.453L3973,568.662Z" transform="translate(-3973 -506.407)" fill="#fff"/>
</svg>
