<svg xmlns="http://www.w3.org/2000/svg" width="298.871" height="383.807" viewBox="0 0 298.871 383.807"><path d="M-4992-18.353l-36.184-3.9h-153.361s-18.709,4.036-26.494,3.9-24.023-3.9-24.023-3.9l-41.424,3.9-4.434-9.869-4.126-26.214-3.662-120.406,7.788,4.263-7.788-99.135s-.907-15.678,0-24.216,7.788-48.226,7.788-48.226l-4.126-49.053v-7.083l74.008,3.439,19.86-3.439s102.067,5.393,127.968,0,37.533-3.566,37.533-3.566h16.178l4.208,7.005,10.292,8.322-6.639,166.713-7.861,11.4,7.861,18.118L-4992-89.764l4.76,16.119L-4992-60.793v6.356l4.76,10.878Z" transform="translate(5286.11 402.157)" fill="#fff"/></svg>