<svg xmlns="http://www.w3.org/2000/svg" width="302.389" height="386.45" viewBox="0 0 302.389 386.45"><path d="M-5279.307,183.847l1.532.268,22.281,3.9,19.019-4.172,15.206,4.172h98.969l18.225,6.155-6.732-10.327,86.04,4.172,29.755-4.172,5.279,36.037-5.279,66.494L-4989.734,387V548.327l6.274,19.568h-30.164l-23.094-6.96-36.069,6.96h-70.427l-11.4-6.96,5.693,6.96-22.611,2.4h-24.3l-31.581-2.4-23.921,2.4-12.095-2.4-10.9-1.34-4.275-9.5V538.27l-7.245-62.176,6.541-36.963V411.057l2.916,4.342-2.916-18.352,2.916-6.419-2.211-18.878,4.275-40.218-2.064-60.037v-62.72l2.064-10.175-2.064-10.581Z" transform="translate(5285.848 -183.847)" fill="#fff"/></svg>