<svg xmlns="http://www.w3.org/2000/svg" width="906.091" height="472.662" viewBox="0 0 906.091 472.662"><path d="M-13109.8-2712.51l-35.061-31.128v-16.6l23.752-50.291,55.489-42.935,85.912,3.115h436.616l141,16.02,31.707,9.672,17.409,52.421-32.719,88.137-31.772,12.206-25.369,22.551,57.142,14.964,8.255,110.478,24.464,26.071-17.409,28.292-107.854,61.959-50.565-5.606-14.291-6.688h-10.251l-28.43,25.962-250.3,8.291-111.282,4.818-55.177-13.109-26.812-14.237-20.177-5.037-103.954-38.111-32.271-77.853,36.885-17.351-36.885-41.293,7.456-14.871h-84.773l17.578-140.969Z" transform="translate(13259.06 2853.467)" fill="#fff"/></svg>