<svg xmlns="http://www.w3.org/2000/svg" width="662.945" height="1479.016" viewBox="0 0 662.945 1479.016"><path d="M3162.586,355.547h64.806l73.6-9.805v9.805H3368.6l35.544-9.805h139.434l31.72,9.805,106.845-9.805h97.162l17.7,33.286V538.67l-17.7,35.122v35.05l10.19,23.209V967.872l7.51,28.743v45.624l9.644-7.75-9.644,51.937v48.334l-7.51,360.623-7.734,29.115,3.367,13.273,4.367,13.545-7.734,18.73-22.452,12.417L3734.3,1602.2l-16.845,27.431v65.918l-17.34,71.752-6.664,23.2-10.335,12.042-16.992,13.649-17.79,8.563H3281.685l-14.162-8.563V1790.5l-29.782-69.844v-91.023l-51.041-47.173-13.367-12.417v-18.73l-10.569-65.416V1356.232l10.569-20.969-10.569-18.792V1050.146l-7.834-23.189v-22.246l7.834-8.1V974.364l-7.834-27.929V608.842l-11.222-28.666V549.468h11.222l-11.222-10.8V499.426l11.222-8.452V379.027Z" transform="translate(-3143.707 -345.741)" fill="#fff"/></svg>