<svg xmlns="http://www.w3.org/2000/svg" width="1280" height="122.028" viewBox="0 0 1280 122.028"><path d="M-13469.09-5891.209h-1280V-6011.65s128.558,22.373,129.948,22.373-21.908-14.581-21.908-14.581l15-9.333h32.362l8.8,11.833,46.447-5.8,20.69,7.955s73.8,8.146,128.949,7.8,62.456-3.513,62.456-3.513l-6.983-4.288h33.375l53.854-13.506h30.039s75.235-3.163,88.52,6.07,67.423,3.735,67.423,3.735l183.825-1.6s110.259,25.259,171.175,23.429,161.359,0,161.359,0l19.638-20.808,5.645-9.176h49.384Z" transform="translate(14749.09 6013.237)" fill="#fff"/></svg>